HIERARCHY
ROOT Hips
{
    OFFSET 0.000000 0.000000 0.000000
    CHANNELS 6 Xposition Yposition Zposition Zrotation Xrotation Yrotation
    JOINT Spine
    {
        OFFSET -0.000000 7.236184 0.000000
        CHANNELS 3 Zrotation Xrotation Yrotation
        JOINT Spine1
        {
            OFFSET -0.000000 20.420147 0.000000
            CHANNELS 3 Zrotation Xrotation Yrotation
            JOINT Neck
            {
                OFFSET -0.000000 20.336288 1.848754
                CHANNELS 3 Zrotation Xrotation Yrotation
                JOINT Head
                {
                    OFFSET -0.000000 12.354461 -1.764923
                    CHANNELS 3 Zrotation Xrotation Yrotation
                    End Site
                    {
                        OFFSET -0.000000 22.061537 0.000000
                    }
                }
            }
            JOINT LeftShoulder
            {
                OFFSET 3.573296 18.396038 -0.314103
                CHANNELS 3 Zrotation Xrotation Yrotation
                JOINT LeftArm
                {
                    OFFSET 10.880760 0.000000 0.000000
                    CHANNELS 3 Zrotation Xrotation Yrotation
                    JOINT LeftForeArm
                    {
                        OFFSET 27.185530 0.000000 0.000000
                        CHANNELS 3 Zrotation Xrotation Yrotation
                        JOINT LeftHand
                        {
                            OFFSET 27.825975 0.000000 0.000000
                            CHANNELS 3 Zrotation Xrotation Yrotation
                            End Site
                            {
                                OFFSET 13.236923 0.000000 0.000000
                            }
                        }
                    }
                }
            }
            JOINT RightShoulder
            {
                OFFSET -3.474926 18.396038 -0.314103
                CHANNELS 3 Zrotation Xrotation Yrotation
                JOINT RightArm
                {
                    OFFSET -10.880760 0.000000 0.000000
                    CHANNELS 3 Zrotation Xrotation Yrotation
                    JOINT RightForeArm
                    {
                        OFFSET -27.185530 0.000000 0.000000
                        CHANNELS 3 Zrotation Xrotation Yrotation
                        JOINT RightHand
                        {
                            OFFSET -27.825975 0.000000 0.000000
                            CHANNELS 3 Zrotation Xrotation Yrotation
                            End Site
                            {
                                OFFSET -13.236923 0.000000 0.000000
                            }
                        }
                    }
                }
            }
        }
    }
    JOINT LeftUpLeg
    {
        OFFSET 8.824615 0.000000 0.000000
        CHANNELS 3 Zrotation Xrotation Yrotation
        JOINT LeftLeg
        {
            OFFSET -0.000000 -35.111282 0.000000
            CHANNELS 3 Zrotation Xrotation Yrotation
            JOINT LeftFoot
            {
                OFFSET -0.000000 -42.324711 0.000000
                CHANNELS 3 Zrotation Xrotation Yrotation
                JOINT LeftToeBase
                {
                    OFFSET -0.000000 -5.735999 13.236923
                    CHANNELS 3 Zrotation Xrotation Yrotation
                    End Site
                    {
                        OFFSET -0.000000 0.000000 3.529846
                    }
                }
            }
        }
    }
    JOINT RightUpLeg
    {
        OFFSET -8.824615 0.000000 0.000000
        CHANNELS 3 Zrotation Xrotation Yrotation
        JOINT RightLeg
        {
            OFFSET -0.000000 -35.111282 0.000000
            CHANNELS 3 Zrotation Xrotation Yrotation
            JOINT RightFoot
            {
                OFFSET -0.000000 -42.324711 0.000000
                CHANNELS 3 Zrotation Xrotation Yrotation
                JOINT RightToeBase
                {
                    OFFSET -0.000000 -5.735999 13.236923
                    CHANNELS 3 Zrotation Xrotation Yrotation
                    End Site
                    {
                        OFFSET -0.000000 0.000000 3.529846
                    }
                }
            }
        }
    }
}
MOTION
Frames:    10
Frame Time:    0.008333
0.703172    78.633751    112.700653    5.529004    -17.498760    -176.949402    0.736135    -2.885743    2.177689    8.606744    2.002806    2.008442    4.022517    0.779100    -3.056740    2.738881    -5.849974    -3.224067    -0.355463    17.016510    2.622840    -57.843613    30.902164    -22.089186    2.302361    0.284360    -12.676325    18.181335    0.467086    -0.457029    7.307899    16.794512    -9.615144    49.346375    25.891109    17.158222    -5.855734    -15.952030    41.279797    -25.056831    -13.186937    -2.922513    17.877260    -42.582630    5.462596    0.893727    42.474396    9.028891    -13.139490    -12.812160    -16.890570    0.825744    -1.262982    -0.917413    -24.274595    -32.480499    -3.416501    -1.161433    59.348907    9.402863    12.102106    -2.943562    -9.553910    1.152995    -19.708395    -1.288896    
0.359984    78.688416    112.650276    5.655340    -17.408363    -176.739838    0.787815    -2.875190    2.147095    8.680813    1.939550    1.980106    4.010928    0.859906    -3.159524    2.752114    -5.823754    -3.324595    -0.351780    17.021833    2.668674    -57.813931    30.570560    -21.906502    2.385444    0.155855    -12.607563    18.549824    0.337343    -0.503360    7.315712    16.810064    -9.685940    49.455143    25.796169    17.021072    -6.045288    -15.874263    41.591549    -25.017849    -13.027975    -2.890522    17.505011    -42.590759    5.306630    1.109964    42.557098    8.625913    -12.977296    -12.930896    -16.769207    0.900629    -1.262132    -1.000610    -24.576344    -32.412834    -3.048621    -1.647992    63.330288    10.197063    11.608055    -2.584229    -9.820889    1.194332    -20.704414    -1.337895    
0.028774    78.720940    112.603775    5.780787    -17.313669    -176.527985    0.839695    -2.863564    2.109921    8.756561    1.894228    1.943893    3.999029    0.941087    -3.254931    2.760231    -5.802299    -3.418270    -0.351950    17.022528    2.713149    -57.779320    30.214420    -21.742050    2.468892    0.021228    -12.534396    18.910069    0.199562    -0.558944    7.323334    16.820045    -9.754657    49.563457    25.674097    16.886847    -6.254360    -15.790508    41.923656    -24.995028    -12.854156    -2.851988    17.137844    -42.630173    5.167572    1.360177    42.697441    8.183612    -12.815489    -13.061682    -16.642311    0.970896    -1.259579    -1.078671    -24.908266    -32.336353    -2.667486    -2.246909    67.589325    11.160001    11.114282    -2.261138    -10.072013    0.613739    -23.337416    -0.691488    
-0.288673    78.731140    112.561729    5.906151    -17.218048    -176.319595    0.892422    -2.852829    2.068436    8.835095    1.867235    1.901956    3.987696    1.022189    -3.341602    2.762947    -5.787567    -3.503823    -0.356245    17.018045    2.755833    -57.740730    29.837387    -21.597456    2.551459    -0.118126    -12.457664    19.254757    0.054882    -0.622848    7.331040    16.823549    -9.820989    49.669960    25.523624    16.754528    -6.482794    -15.701479    42.275635    -24.992226    -12.665867    -2.806504    16.783606    -42.701767    5.045430    1.636796    42.894005    7.718131    -12.656666    -13.202520    -16.513918    1.036041    -1.255464    -1.151038    -25.265097    -32.247002    -2.268087    -3.059873    72.069069    12.393700    10.624848    -1.991137    -10.310453    0.015997    -25.893957    -0.018097    
-0.592279    78.719727    112.524452    6.032740    -17.124683    -176.120071    0.946990    -2.844844    2.025074    8.917395    1.858440    1.856642    3.977672    1.101769    -3.418868    2.760506    -5.779750    -3.580684    -0.364401    17.008404    2.796809    -57.698650    29.442085    -21.474281    2.632224    -0.261261    -12.377535    19.580214    -0.094607    -0.694280    7.338955    16.820009    -9.884658    49.774090    25.343433    16.622868    -6.730904    -15.607575    42.648300    -25.013016    -12.462927    -2.753913    16.448318    -42.805290    4.939325    1.932989    43.143948    7.244266    -12.502337    -13.352043    -16.387339    1.095636    -1.250639    -1.217234    -25.641338    -32.142521    -1.845009    -4.352096    76.720261    14.164696    10.139905    -1.787905    -10.545230    -0.416735    -27.777239    0.474657    
-0.880341    78.688164    112.492332    6.160901    -17.037209    -175.935974    1.003828    -2.841794    1.982562    9.003828    1.867821    1.810589    3.969851    1.179260    -3.485871    2.752904    -5.780922    -3.648014    -0.376181    16.993183    2.834859    -57.654335    29.033443    -21.372955    2.710921    -0.403951    -12.294893    19.883272    -0.247291    -0.770886    7.347148    16.809565    -9.944701    49.874599    25.133537    16.491764    -6.997015    -15.509929    43.039768    -25.060209    -12.246877    -2.694047    16.139277    -42.938663    4.848402    2.239715    43.440815    6.778982    -12.354922    -13.507694    -16.265692    1.148971    -1.245869    -1.276477    -26.028164    -32.023342    -1.397469    -6.976145    81.451004    17.322128    9.660195    -1.661401    -10.787169    -0.734250    -29.091110    0.839160    
-1.158785    78.637489    112.464844    6.293940    -16.956600    -175.768845    1.064765    -2.845625    1.942326    9.096365    1.895897    1.765073    3.964468    1.255144    -3.543735    2.740809    -5.792184    -3.706891    -0.391096    16.972023    2.870389    -57.607418    28.606220    -21.292322    2.788817    -0.548325    -12.207963    20.170561    -0.401678    -0.852763    7.356256    16.792555    -10.001973    49.972412    24.890255    16.358351    -7.286875    -15.408342    43.458603    -25.137274    -12.014439    -2.625771    15.854697    -43.102222    4.769370    2.556553    43.785065    6.324627    -12.211961    -13.671684    -16.147324    1.196808    -1.241090    -1.329611    -26.426254    -31.888294    -0.914299    -16.381758    86.244064    27.325224    9.174482    -1.614024    -11.053920    -0.978151    -29.939346    1.120465    
-1.423503    78.570091    112.442566    6.430245    -16.886456    -175.626373    1.129415    -2.857432    1.907025    9.193534    1.942213    1.722683    3.962106    1.327280    -3.591372    2.724830    -5.814354    -3.756133    -0.408837    16.945051    2.902325    -57.558289    28.169455    -21.234173    2.865136    -0.688917    -12.117765    20.439142    -0.553666    -0.936355    7.366721    16.769926    -10.054764    50.065174    24.616316    16.224569    -7.595994    -15.305583    43.899582    -25.245493    -11.769879    -2.549564    15.602674    -43.291142    4.702104    2.872696    44.166355    5.898259    -12.075794    -13.840895    -16.034180    1.237772    -1.237679    -1.375111    -26.822689    -31.741804    -0.401135    -139.569290    88.335869    151.162338    8.688143    -1.645206    -11.355721    -1.171330    -30.380419    1.343373    
-1.678474    78.487389    112.425102    6.571321    -16.827444    -175.510956    1.198628    -2.878115    1.877810    9.295978    2.007137    1.684485    3.963296    1.396380    -3.629511    2.705091    -5.849173    -3.796550    -0.428534    16.912121    2.930218    -57.506626    27.719931    -21.197948    2.941216    -0.825363    -12.022695    20.695686    -0.701964    -1.020024    7.379325    16.742941    -10.103344    50.152988    24.309673    16.089632    -7.928389    -15.202816    44.368896    -25.387384    -11.512012    -2.464791    15.381947    -43.504066    4.644117    3.186349    44.583256    5.501898    -11.944534    -14.017121    -15.923726    1.271810    -1.235213    -1.412918    -27.215906    -31.585415    0.149228    -169.741440    83.779930    -177.960327    8.195531    -1.748106    -11.707474    -1.335685    -30.476013    1.532266    
-1.921971    78.392349    112.412453    6.714912    -16.781189    -175.427490    1.271366    -2.907970    1.855995    9.401739    2.090218    1.651835    3.968370    1.460756    -3.657944    2.682182    -5.896025    -3.827887    -0.449453    16.872984    2.953252    -57.452629    27.264196    -21.183699    3.016907    -0.954362    -11.922684    20.941042    -0.842716    -1.100444    7.394547    16.712606    -10.146169    50.234444    23.974190    15.955086    -8.280530    -15.103300    44.862858    -25.562479    -11.245156    -2.371826    15.195386    -43.735126    4.594407    3.489330    45.026062    5.145331    -11.818556    -14.198604    -15.815596    1.297979    -1.234294    -1.441987    -27.596460    -31.424597    0.731088    -173.945496    79.095047    -173.009567    7.702931    -1.910163    -12.114209    -1.484148    -30.276485    1.701623    
